C:\dev\predsim\predsim_tutorial\Results\Case_0\GRF.mot
version=1
nRows=25
nColumns=19
inDegrees=yes
endheader 
time	r_ground_force_vx	r_ground_force_vy	r_ground_force_vz	r_ground_force_px	r_ground_force_py	r_ground_force_pz	l_ground_force_vx	l_ground_force_vy	l_ground_force_vz	l_ground_force_px	l_ground_force_py	l_ground_force_pz	r_ground_torque_x	r_ground_torque_y	r_ground_torque_z	l_ground_torque_x	l_ground_torque_y	l_ground_torque_z	
          0.00000000	         -7.72929118	         97.63361511	         32.39895844	          0.21114441	          0.00000000	          0.06227560	        102.11651816	        474.83615759	         -2.78692921	         -0.34121854	          0.00000000	         -0.09274530	          0.00000000	         -0.00091266	          0.00000000	          0.00000000	         -3.01463015	          0.00000000	
          0.04219813	       -149.73577800	        764.69375555	        -23.59148597	          0.23333657	          0.00000000	          0.06738200	         56.16386815	        241.78649393	        -28.03590721	         -0.32419951	          0.00000000	         -0.09277085	          0.00000000	          2.53256721	          0.00000000	          0.00000000	         -1.24449217	          0.00000000	
          0.08439626	       -102.92085791	        672.41134945	         -5.45184887	          0.24824930	          0.00000000	          0.06556625	          0.00000000	          0.00000000	          0.00000000	          0.00000000	          0.00000000	          0.00000000	          0.00000000	          7.19725894	          0.00000000	          0.00000000	          0.00000000	          0.00000000	
          0.12659439	        -55.56955445	        535.14869897	         -4.54864929	          0.25648236	          0.00000000	          0.06029132	          0.00000000	          0.00000000	          0.00000000	          0.00000000	          0.00000000	          0.00000000	          0.00000000	          6.05284737	          0.00000000	          0.00000000	          0.00000000	          0.00000000	
          0.16879252	        -29.96116982	        482.91613733	        -12.23466446	          0.25948085	          0.00000000	          0.05729573	          0.00000000	          0.00000000	          0.00000000	          0.00000000	          0.00000000	          0.00000000	          0.00000000	          5.15433318	          0.00000000	          0.00000000	          0.00000000	          0.00000000	
          0.21099065	        -17.49515737	        488.33986740	        -19.49695641	          0.26345547	          0.00000000	          0.05589487	          0.00000000	          0.00000000	          0.00000000	          0.00000000	          0.00000000	          0.00000000	          0.00000000	          5.19980938	          0.00000000	          0.00000000	          0.00000000	          0.00000000	
          0.25318878	         -8.19586945	        503.44115797	        -20.73669202	          0.26949960	          0.00000000	          0.05573999	          0.00000000	          0.00000000	          0.00000000	          0.00000000	          0.00000000	          0.00000000	          0.00000000	          6.12794703	          0.00000000	          0.00000000	          0.00000000	          0.00000000	
          0.29538691	          9.81721815	        516.72034450	        -25.69201766	          0.27864146	          0.00000000	          0.05664910	          0.00000000	          0.00000000	          0.00000000	          0.00000000	          0.00000000	          0.00000000	          0.00000000	          7.10169471	          0.00000000	          0.00000000	          0.00000000	          0.00000000	
          0.33758504	         31.64072060	        592.11838085	        -36.86075880	          0.29551338	          0.00000000	          0.06032044	          0.00000000	          0.00000000	          0.00000000	          0.00000000	          0.00000000	          0.00000000	          0.00000000	         10.02930063	          0.00000000	          0.00000000	          0.00000000	          0.00000000	
          0.37978318	         34.25786711	        604.24089622	        -43.22048843	          0.31995512	          0.00000000	          0.06762061	          0.00000000	          0.00000000	          0.00000000	          0.00000000	          0.00000000	          0.00000000	          0.00000000	         13.46822474	          0.00000000	          0.00000000	          0.00000000	          0.00000000	
          0.42198131	         15.34973465	        574.32898501	        -45.67119102	          0.34993785	          0.00000000	          0.07780927	          0.00000000	          0.00000000	          0.00000000	          0.00000000	          0.00000000	          0.00000000	          0.00000000	         17.27929046	          0.00000000	          0.00000000	          0.00000000	          0.00000000	
          0.46417944	          8.40810130	        511.67675998	        -49.53681855	          0.38416044	          0.00000000	          0.08229333	          0.00000000	          0.00000000	          0.00000000	          0.00000000	          0.00000000	          0.00000000	          0.00000000	         15.35190770	          0.00000000	          0.00000000	          0.00000000	          0.00000000	
          0.50637757	         26.25282180	        446.47152551	        -44.51499085	          0.40633131	          0.00000000	          0.07731538	          4.04418541	        278.82926729	         85.92123175	          0.84867784	          0.00000000	         -0.06131778	          0.00000000	         10.04956352	          0.00000000	          0.00000000	          0.00117170	          0.00000000	
          0.54857570	         21.67627793	        237.17636069	        -33.85061793	          0.43371493	          0.00000000	          0.07992648	       -100.24753869	        663.49975673	         37.78712648	          0.86392999	          0.00000000	         -0.06993312	          0.00000000	          3.16603581	          0.00000000	          0.00000000	          1.01468156	          0.00000000	
          0.59077383	         -6.58573458	         60.53821903	        -19.03173726	          0.45396326	          0.00000000	          0.09037105	        -88.02833522	        664.12548456	         38.61220956	          0.88450595	          0.00000000	         -0.07165120	          0.00000000	         -0.00000055	          0.00000000	          0.00000000	          5.17170344	          0.00000000	
          0.63297196	          0.00000000	          0.00000000	          0.00000000	          0.00000000	          0.00000000	          0.00000000	        -39.80947889	        611.63535951	         27.04090949	          0.90044762	          0.00000000	         -0.07226421	          0.00000000	          0.00000000	          0.00000000	          0.00000000	          8.15264868	          0.00000000	
          0.67517009	          0.00000000	          0.00000000	          0.00000000	          0.00000000	          0.00000000	          0.00000000	         -2.64854868	        507.55152377	         24.01935312	          0.91674435	          0.00000000	         -0.07429551	          0.00000000	          0.00000000	          0.00000000	          0.00000000	          8.93178353	          0.00000000	
          0.71736822	          0.00000000	          0.00000000	          0.00000000	          0.00000000	          0.00000000	          0.00000000	          3.78504055	        476.33388965	         27.68356943	          0.93989678	          0.00000000	         -0.07732849	          0.00000000	          0.00000000	          0.00000000	          0.00000000	          7.70460551	          0.00000000	
          0.75956635	          0.00000000	          0.00000000	          0.00000000	          0.00000000	          0.00000000	          0.00000000	          3.36544841	        473.44664913	         30.17557460	          0.96323260	          0.00000000	         -0.08225834	          0.00000000	          0.00000000	          0.00000000	          0.00000000	          5.58645938	          0.00000000	
          0.80176448	          0.00000000	          0.00000000	          0.00000000	          0.00000000	          0.00000000	          0.00000000	          6.12312284	        473.84697891	         28.08033637	          0.98278155	          0.00000000	         -0.08741374	          0.00000000	          0.00000000	          0.00000000	          0.00000000	          2.39817298	          0.00000000	
          0.84396261	          0.00000000	          0.00000000	          0.00000000	          0.00000000	          0.00000000	          0.00000000	         16.45504734	        456.26168190	         25.64644640	          0.99774965	          0.00000000	         -0.09154848	          0.00000000	          0.00000000	          0.00000000	          0.00000000	         -0.35232828	          0.00000000	
          0.88616074	          0.00000000	          0.00000000	          0.00000000	          0.00000000	          0.00000000	          0.00000000	         36.11298078	        457.43200500	         27.49185909	          1.00956749	          0.00000000	         -0.09353487	          0.00000000	          0.00000000	          0.00000000	          0.00000000	         -3.05604577	          0.00000000	
          0.92835887	          0.00000000	          0.00000000	          0.00000000	          0.00000000	          0.00000000	          0.00000000	         72.66760761	        586.19530498	         38.87626154	          1.01744203	          0.00000000	         -0.09181680	          0.00000000	          0.00000000	          0.00000000	          0.00000000	         -6.17799438	          0.00000000	
          0.97055700	          0.00000000	          0.00000000	          0.00000000	          0.00000000	          0.00000000	          0.00000000	         95.35934475	        730.50823559	         22.04640874	          1.02557051	          0.00000000	         -0.08815252	          0.00000000	          0.00000000	          0.00000000	          0.00000000	         -9.17355373	          0.00000000	
          1.01275513	          0.00000000	          0.00000000	          0.00000000	          0.00000000	          0.00000000	          0.00000000	        111.32837949	        692.44661730	          5.97557574	          1.03852058	          0.00000000	         -0.08662494	          0.00000000	          0.00000000	          0.00000000	          0.00000000	         -6.79770339	          0.00000000	
